<mxfile host="app.diagrams.net" modified="2023-11-24T15:26:59.500Z" agent="Mozilla/5.0 (Macintosh; Intel Mac OS X 10_15_7) AppleWebKit/537.36 (KHTML, like Gecko) Chrome/119.0.0.0 Safari/537.36" version="22.1.3" etag="D4V7SllMeE0AX5kGxVhJ" type="github">
  <diagram name="Page-1" id="9iPg4dN-lJotqxJ0CNxL">
    <mxGraphModel>
      <root>
        <mxCell id="0" />
        <mxCell id="1" parent="0" />
      </root>
    </mxGraphModel>
  </diagram>
</mxfile>
